<!DOCTYPE svg PUBLIC "-//W3C//DTD SVG 20010904//EN" "http://www.w3.org/TR/2001/REC-SVG-20010904/DTD/svg10.dtd">
<svg version="1.0" xmlns="http://www.w3.org/2000/svg" width="400px" height="400px" viewBox="0 0 4000 4000" preserveAspectRatio="xMidYMid meet">
<g id="layer101" fill="#c2c1a5" stroke="none">
 <path d="M1760 3616 c-675 -98 -1225 -598 -1388 -1261 -45 -181 -58 -443 -32 -625 53 -371 229 -715 496 -970 239 -228 510 -370 844 -442 90 -19 134 -22 315 -22 181 0 225 3 315 22 361 78 653 240 896 495 240 252 392 564 445 912 15 103 15 367 0 470 -108 707 -628 1258 -1326 1405 -131 27 -426 36 -565 16z m445 -257 c553 -82 1003 -479 1154 -1020 181 -650 -130 -1346 -735 -1646 -197 -98 -391 -143 -622 -143 -338 0 -617 93 -877 296 -387 300 -596 804 -534 1285 40 312 172 586 391 814 110 115 214 193 351 265 268 141 571 193 872 149z"/>
 <path d="M877 2594 c-4 -4 -7 -88 -7 -186 l0 -179 148 3 c147 3 147 3 147 53 0 50 0 50 -82 53 -65 2 -83 6 -83 17 0 12 15 15 70 15 70 0 70 0 70 50 0 50 0 50 -70 50 -69 0 -69 0 -72 63 -3 62 -3 62 -58 65 -31 2 -59 0 -63 -4z"/>
 <path d="M1127 2593 c-4 -7 43 -146 109 -321 16 -43 16 -43 86 -40 70 3 70 3 134 177 35 96 64 178 64 183 0 4 -29 8 -65 8 -61 0 -66 -2 -75 -25 -9 -22 -15 -25 -64 -25 -49 0 -54 2 -60 25 -6 23 -11 25 -66 25 -32 0 -61 -3 -63 -7z m213 -152 c0 -5 -5 -22 -11 -38 -12 -28 -12 -28 -19 -3 -13 41 -11 50 10 50 11 0 20 -4 20 -9z"/>
 <path d="M1547 2594 c-4 -4 -7 -88 -7 -186 0 -178 0 -178 54 -178 54 0 54 0 118 75 l63 76 3 -76 c3 -75 3 -75 63 -75 59 0 59 0 57 183 -3 182 -3 182 -53 185 -50 3 -50 3 -115 -74 l-65 -76 -5 73 c-5 74 -5 74 -55 77 -28 2 -54 0 -58 -4z"/>
 <path d="M2047 2594 c-4 -4 -7 -63 -7 -131 0 -123 0 -123 -55 -123 -55 0 -55 0 -55 -55 0 -55 0 -55 175 -55 175 0 175 0 175 55 0 55 0 55 -55 55 -54 0 -54 0 -57 128 -3 127 -3 127 -58 130 -31 2 -59 0 -63 -4z"/>
 <path d="M2395 2588 c-140 -49 -156 -270 -25 -335 91 -47 225 -21 270 52 42 67 36 169 -12 231 -44 55 -154 80 -233 52z m117 -105 c33 -37 30 -123 -5 -145 -19 -12 -64 -9 -76 5 -15 19 -25 72 -17 101 13 53 67 74 98 39z"/>
 <path d="M2707 2594 c-4 -4 -7 -88 -7 -186 l0 -179 87 3 c87 3 87 3 106 81 22 89 28 87 53 -15 16 -68 16 -68 100 -68 l84 0 -2 183 c-3 182 -3 182 -63 182 -60 0 -60 0 -66 -65 -3 -36 -6 -59 -7 -52 -1 8 -9 38 -18 68 -15 54 -15 54 -58 54 -52 0 -59 -8 -77 -80 -14 -55 -14 -55 -19 10 -5 65 -5 65 -55 68 -28 2 -54 0 -58 -4z"/>
 <path d="M1095 2085 c-25 -24 -25 -24 -25 -277 1 -183 4 -257 13 -269 27 -36 53 -39 287 -39 313 0 290 -25 290 310 0 331 31 300 -295 300 -246 0 -246 0 -270 -25z m65 -337 c0 -226 -13 -211 188 -218 147 -6 147 -6 -34 -8 -249 -3 -228 -26 -232 260 -3 223 -3 223 37 183 41 -39 41 -39 41 -217z m365 217 c25 -24 25 -27 25 -200 0 -173 0 -176 -25 -200 -23 -24 -29 -25 -163 -25 -196 0 -183 -16 -180 230 4 236 -10 220 186 220 128 0 134 -1 157 -25z"/>
 <path d="M1263 1803 c-18 -9 -33 -19 -33 -23 0 -3 18 -16 40 -29 40 -22 40 -22 40 -2 0 19 6 21 60 21 33 0 60 4 60 10 0 6 -27 10 -60 10 -47 0 -60 3 -60 15 0 18 -6 18 -47 -2z"/>
 <path d="M1742 2103 c-36 -14 -42 -56 -42 -303 0 -323 -22 -300 290 -300 257 0 279 5 299 61 7 20 11 115 11 246 0 227 -7 270 -48 292 -21 11 -484 15 -510 4z m48 -349 c0 -233 -9 -222 188 -227 147 -3 147 -3 -35 -5 -171 -2 -184 -1 -203 18 -19 19 -20 33 -20 237 0 217 0 217 35 183 35 -34 35 -34 35 -206z m365 211 c25 -24 25 -27 25 -194 0 -107 -4 -179 -12 -195 -15 -33 -45 -38 -202 -34 -113 3 -129 5 -142 22 -11 15 -14 60 -14 200 0 100 4 186 8 192 18 27 53 33 180 34 128 0 134 -1 157 -25z"/>
 <path d="M1907 1845 c-21 -43 -21 -45 -2 -45 12 0 15 -13 15 -60 0 -33 4 -60 10 -60 6 0 10 27 10 60 0 54 2 60 21 60 20 0 20 0 -2 40 -13 22 -26 40 -29 40 -3 0 -14 -16 -23 -35z"/>
 <path d="M2359 2084 c-24 -25 -24 -28 -27 -259 -3 -258 3 -296 53 -315 15 -6 128 -10 255 -10 311 0 284 -28 288 298 4 339 29 312 -297 312 -248 0 -248 0 -272 -26z m71 -340 c0 -226 -11 -213 180 -217 145 -3 145 -3 -37 -5 -241 -3 -223 -24 -223 267 1 216 1 216 40 171 40 -44 40 -44 40 -216z m360 226 c19 -19 20 -33 20 -205 0 -239 11 -225 -180 -225 -136 0 -142 1 -165 25 -25 24 -25 27 -25 200 0 173 0 176 25 200 23 24 29 25 165 25 127 0 142 -2 160 -20z"/>
 <path d="M2600 1805 c0 -12 -13 -15 -60 -15 -33 0 -60 -4 -60 -10 0 -6 27 -10 60 -10 54 0 60 -2 60 -21 0 -20 0 -20 40 2 22 13 40 25 40 29 0 8 -55 40 -69 40 -6 0 -11 -7 -11 -15z"/>
 <path d="M1742 1443 c-36 -14 -42 -56 -42 -303 0 -323 -22 -300 290 -300 257 0 279 5 299 61 7 20 11 115 11 246 0 227 -7 270 -48 292 -21 11 -484 15 -510 4z m48 -349 c0 -233 -9 -222 188 -227 147 -3 147 -3 -35 -5 -171 -2 -184 -1 -203 18 -19 19 -20 33 -20 237 0 217 0 217 35 183 35 -34 35 -34 35 -206z m365 211 c25 -24 25 -26 25 -203 0 -138 -3 -183 -14 -198 -13 -17 -28 -19 -171 -19 -143 0 -158 2 -171 19 -11 15 -14 60 -14 200 0 100 4 186 8 192 18 27 53 33 180 34 128 0 134 -1 157 -25z"/>
 <path d="M1920 1160 c0 -47 -3 -60 -15 -60 -8 0 -15 -5 -15 -11 0 -13 32 -69 40 -69 8 0 40 56 40 69 0 6 -7 11 -15 11 -12 0 -15 13 -15 60 0 33 -4 60 -10 60 -6 0 -10 -27 -10 -60z"/>
 </g>

</svg>